<?xml version="1.0" encoding="UTF-8" standalone="no"?>
<svg
   fill="none"
   height="1872"
   viewBox="-10.120219 -53.60951 280.39473 285.64851"
   width="2062"
   version="1.1"
   id="svg1"
   sodipodi:docname="blazor2.svg"
   inkscape:version="1.4 (86a8ad7, 2024-10-11)"
   xmlns:inkscape="http://www.inkscape.org/namespaces/inkscape"
   xmlns:sodipodi="http://sodipodi.sourceforge.net/DTD/sodipodi-0.dtd"
   xmlns="http://www.w3.org/2000/svg"
   xmlns:svg="http://www.w3.org/2000/svg">
  <defs
     id="defs1" />
  <sodipodi:namedview
     id="namedview1"
     pagecolor="#ffffff"
     bordercolor="#000000"
     borderopacity="0.25"
     inkscape:showpageshadow="2"
     inkscape:pageopacity="0.0"
     inkscape:pagecheckerboard="0"
     inkscape:deskcolor="#d1d1d1"
     inkscape:zoom="0.51912811"
     inkscape:cx="1249.2099"
     inkscape:cy="1124"
     inkscape:window-width="3440"
     inkscape:window-height="1369"
     inkscape:window-x="-8"
     inkscape:window-y="-8"
     inkscape:window-maximized="1"
     inkscape:current-layer="svg1" />
  <path
     d="m 280.74132,39.6502 c -6.598,41.362 -27.653,79.041 -59.42,106.335 -31.767,27.294 -72.185,42.433 -114.064,42.723 -8.483,0.326 -16.977,-0.19 -25.358,-1.539 a 77.723,77.723 0 0 1 -64.63,-73.266 75.479,75.479 0 0 1 22.14,-52.762 75.46,75.46 0 0 1 105.885,-0.748 75.478,75.478 0 0 1 22.884,52.443 c 0.317,12.51 -5.102,23.483 -16.239,23.8 -11.899,0 -17.477,-8.491 -17.477,-19.934 v -31.797 a 19.478,19.478 0 0 0 -19.323,-19.494 h -26.653 a 46.386,46.386 0 0 0 -39.119,20.961 46.399,46.399 0 0 0 31.587,71.268 46.392,46.392 0 0 0 41.8,-14.911 l 0.932,-1.39 0.933,1.543 a 32.82,32.82 0 0 0 27.986,13.328 36.992,36.992 0 0 0 34.268,-38.671 100.64,100.64 0 0 0 -2.761,-24.577 c -4.943,-22.734 -18.126,-42.834 -37.008,-56.423 a 94.153,94.153 0 0 0 -125.236,13.718 94.175,94.175 0 0 0 -23.9200002,63.097 95.352,95.352 0 0 0 27.4730002,65.824 95.331,95.331 0 0 0 65.448,28.344 c 0,0 6.98,0.635 14.849,0.454 a 200.94,200.94 0 0 0 107.769,-32.155 c 0.457,-0.318 0.914,0.317 0.61,0.78 a 158.177,158.177 0 0 1 -123.225,50.396 111.185,111.185 0 0 1 -80.961,-32.871 111.215,111.215 0 0 1 -32.215,-81.232 115.099,115.099 0 0 1 46.223,-92.17 112.704,112.704 0 0 1 66.497,-21.9530002 h 35.772 a 100.637,100.637 0 0 0 74.247,-32.7839998 1.39,1.39 0 0 1 0.755,-0.431 1.418,1.418 0 0 1 1.52,0.663 c 0.153,0.257 0.222,0.555 0.197,0.854 a 100.93,100.93 0 0 1 -15.608,45.14 1.386,1.386 0 0 0 0.115,1.511 1.387,1.387 0 0 0 1.424,0.507 108.158,108.158 0 0 0 75.198,-62.013 c 0.173,-0.277 0.411,-0.507 0.695,-0.67 a 1.902,1.902 0 0 1 1.869,0 c 0.284,0.162 0.523,0.392 0.694,0.67 a 137.098,137.098 0 0 1 13.447,87.432 z m -189.964,44.858 a 27.823,27.823 0 0 0 -27.293,33.255 27.83,27.83 0 0 0 21.862,21.865 27.824,27.824 0 0 0 33.251,-27.296 v -25.977 a 2.007,2.007 0 0 0 -1.904,-1.904 z"
     fill="#702af7"
     id="path1" />
</svg>
