<svg width="290" height="262" viewBox="0 0 290 262" fill="none" xmlns="http://www.w3.org/2000/svg">
<path d="M131.669 128.881C131.669 126.657 131.142 126.139 128.968 126.139H105.08C88.3616 126.139 75.8477 141.838 79.5638 158.132C82.6882 171.8 95.4519 180.502 109.364 178.448C121.424 176.666 130.92 166.348 131.501 154.177C131.715 149.707 131.536 145.226 131.536 140.737H131.653C131.653 136.786 131.653 132.834 131.653 128.881" fill="url(#paint0_linear_1_848)"/>
<path d="M289.038 48.1584C287.719 31.8837 283.609 16.4228 275.864 1.99258C275.381 1.09205 274.93 -0.120416 273.769 0.175241C272.954 0.389524 272.14 1.26022 271.654 2.04954C269.246 5.99073 267.061 10.0702 264.596 13.9843C257.927 24.5818 250.033 34.1107 239.976 41.7245C228.382 50.5047 215.238 55.9269 201.307 59.6456C200.713 59.8057 199.993 59.4992 199.331 59.4096C199.421 58.7587 199.331 58.01 199.627 57.4621C201.451 54.02 203.514 50.7 205.208 47.1982C209.96 37.3313 212.936 26.7053 214 15.8071C214.084 14.9798 214.209 13.9599 213.162 13.8026C212.556 13.7131 211.715 14.1308 211.218 14.5838C207.939 17.5674 204.893 20.8224 201.462 23.6081C185.137 36.8801 166.418 44.2444 145.383 45.0364C132.714 45.5138 120.01 45.0364 107.325 45.2561C101.739 45.3125 96.1637 45.7657 90.6418 46.6123C67.4164 50.3392 47.4185 60.5245 31.0418 77.4881C11.937 97.289 1.61372 121.001 0.175029 148.451C-0.620325 163.611 1.49968 178.448 6.79299 192.718C16.7146 219.463 34.3834 239.302 60.2337 251.595C76.3634 259.263 93.4947 262.29 111.302 261.956C121.392 261.769 131.408 260.982 141.354 259.244C162.177 255.617 181.478 248.193 199.005 236.31C199.782 235.784 200.61 235.187 201.476 234.533C206.704 230.592 213.314 224.619 218.175 220.038C222.024 216.409 224.78 213.653 224.88 213.468L224.462 213.154C223.941 213.466 223.412 213.764 222.899 214.092C194.339 232.247 163.076 241.843 129.34 243.606C117.803 244.209 106.299 243.948 94.9117 241.857C73.6272 237.943 55.4236 228.295 41.2457 211.846C22.939 190.613 16.1174 165.911 20.7945 138.315C24.3641 117.28 34.5707 99.7302 50.7438 85.8126C66.1596 72.5433 84.1622 65.3879 104.47 64.3246C120.542 63.481 135.803 66.7983 150.073 74.2955C167.475 83.4401 180.532 96.8342 189.244 114.478C194.353 124.828 197.116 135.849 198.297 147.279C199.043 154.549 198.978 161.786 196.94 168.917C192.325 185.072 178.584 196.662 161.45 194.414C153.339 193.353 146.379 190.22 141.042 183.887C140.187 182.875 139.414 181.784 138.599 180.705C138.192 181.269 137.757 181.812 137.296 182.332C125.841 194.085 112.073 198.878 95.8889 195.485C73.6299 190.801 58.3607 168.594 61.819 146.338C65.242 124.335 83.7062 108.527 105.987 108.527H130.01C140.947 108.527 149.028 116.585 149.031 127.487C149.031 137.224 148.982 146.962 149.064 156.7C149.059 159.105 149.312 161.504 149.818 163.855C152.085 173.753 162.202 179.012 171.146 175.006C175.913 172.871 178.351 168.797 179.833 164.04C181.681 158.102 181.394 152.021 180.631 145.991C178.405 128.403 170.842 113.425 157.701 101.507C140.98 86.3578 121.164 80.2602 98.8287 83.4555C79.3141 86.252 63.4505 95.8134 51.8215 111.725C38.8759 129.448 34.5408 149.219 39.8043 170.69C43.0617 183.957 50.2443 195.048 60.2202 204.292C73.8905 216.959 90.0799 224.004 108.691 225.295C118.658 225.989 128.631 225.737 138.588 224.82C153.279 223.467 167.713 220.09 181.478 214.784C208.465 204.433 231.471 188.34 250.25 166.397C266.923 146.919 278.614 125.292 284.7 101.298C286.907 92.5485 288.36 83.6263 289.043 74.6292C289.133 73.471 289.372 72.3182 289.543 71.1654V52.9594C289.369 51.3591 289.155 49.7615 289.022 48.1584" fill="url(#paint1_linear_1_848)"/>
<defs>
<linearGradient id="paint0_linear_1_848" x1="18.8075" y1="215.706" x2="274.33" y2="28.4864" gradientUnits="userSpaceOnUse">
<stop stop-color="white"/>
<stop offset="0.41" stop-color="#F5F3FD"/>
<stop offset="1" stop-color="#E1DAF9"/>
</linearGradient>
<linearGradient id="paint1_linear_1_848" x1="23.8701" y1="222.618" x2="279.393" y2="35.3948" gradientUnits="userSpaceOnUse">
<stop stop-color="white"/>
<stop offset="0.41" stop-color="#F5F3FD"/>
<stop offset="1" stop-color="#E1DAF9"/>
</linearGradient>
</defs>
</svg>