<?xml version="1.0" encoding="UTF-8" standalone="no"?>
<!-- Created with Inkscape (http://www.inkscape.org/) -->

<svg
   version="1.1"
   id="svg1"
   width="411.29999"
   height="347"
   viewBox="0 0 411.29999 347"
   sodipodi:docname="freebsd5.svg"
   inkscape:version="1.4 (86a8ad7, 2024-10-11)"
   xmlns:inkscape="http://www.inkscape.org/namespaces/inkscape"
   xmlns:sodipodi="http://sodipodi.sourceforge.net/DTD/sodipodi-0.dtd"
   xmlns="http://www.w3.org/2000/svg"
   xmlns:svg="http://www.w3.org/2000/svg">
  <defs
     id="defs1">
    <clipPath
       clipPathUnits="userSpaceOnUse"
       id="clipPath2">
      <path
         d="M 0,560 H 960 V 0 H 0 Z"
         transform="translate(-503.91401,-179.4386)"
         id="path2" />
    </clipPath>
    <clipPath
       clipPathUnits="userSpaceOnUse"
       id="clipPath4">
      <path
         d="M 0,560 H 960 V 0 H 0 Z"
         transform="translate(-611.15762,-209.1612)"
         id="path4" />
    </clipPath>
    <clipPath
       clipPathUnits="userSpaceOnUse"
       id="clipPath6">
      <path
         d="M 0,560 H 960 V 0 H 0 Z"
         transform="translate(-573.97631,-209.04221)"
         id="path6" />
    </clipPath>
    <clipPath
       clipPathUnits="userSpaceOnUse"
       id="clipPath8">
      <path
         d="M 0,560 H 960 V 0 H 0 Z"
         transform="translate(-348.46151,-146.30411)"
         id="path8" />
    </clipPath>
    <clipPath
       clipPathUnits="userSpaceOnUse"
       id="clipPath10">
      <path
         d="M 0,560 H 960 V 0 H 0 Z"
         transform="translate(-307.82241,-179.3555)"
         id="path10" />
    </clipPath>
    <clipPath
       clipPathUnits="userSpaceOnUse"
       id="clipPath12">
      <path
         d="M 0,560 H 960 V 0 H 0 Z"
         transform="translate(-480.35291,-171.2267)"
         id="path12" />
    </clipPath>
    <clipPath
       clipPathUnits="userSpaceOnUse"
       id="clipPath14">
      <path
         d="M 0,560 H 960 V 0 H 0 Z"
         transform="translate(-421.80351,-171.2267)"
         id="path14" />
    </clipPath>
    <clipPath
       clipPathUnits="userSpaceOnUse"
       id="clipPath16">
      <path
         d="M 0,560 H 960 V 0 H 0 Z"
         transform="translate(-654.92162,-212.65841)"
         id="path16" />
    </clipPath>
    <clipPath
       clipPathUnits="userSpaceOnUse"
       id="clipPath18">
      <path
         d="M 0,560 H 960 V 0 H 0 Z"
         transform="translate(-573.54191,-410.49791)"
         id="path18" />
    </clipPath>
    <clipPath
       clipPathUnits="userSpaceOnUse"
       id="clipPath20">
      <path
         d="M 0,560 H 960 V 0 H 0 Z"
         transform="translate(-563.28601,-421.39571)"
         id="path20" />
    </clipPath>
    <clipPath
       clipPathUnits="userSpaceOnUse"
       id="clipPath22">
      <path
         d="M 0,560 H 960 V 0 H 0 Z"
         transform="translate(-424.54211,-410.93121)"
         id="path22" />
    </clipPath>
    <clipPath
       clipPathUnits="userSpaceOnUse"
       id="clipPath24">
      <path
         d="M 0,560 H 960 V 0 H 0 Z"
         transform="translate(-548.19841,-366.80731)"
         id="path24" />
    </clipPath>
  </defs>
  <sodipodi:namedview
     id="namedview1"
     pagecolor="#ffffff"
     bordercolor="#000000"
     borderopacity="0.25"
     inkscape:showpageshadow="2"
     inkscape:pageopacity="0.0"
     inkscape:pagecheckerboard="0"
     inkscape:deskcolor="#d1d1d1"
     inkscape:zoom="2.21034"
     inkscape:cx="221.00672"
     inkscape:cy="206.52931"
     inkscape:window-width="3440"
     inkscape:window-height="1369"
     inkscape:window-x="-8"
     inkscape:window-y="-8"
     inkscape:window-maximized="1"
     inkscape:current-layer="g24">
    <inkscape:page
       x="0"
       y="0"
       inkscape:label="1"
       id="page1"
       width="411.29999"
       height="347"
       margin="189.37199 401.48666 180.62399"
       bleed="0" />
  </sodipodi:namedview>
  <g
     id="layer-MC0"
     inkscape:groupmode="layer"
     inkscape:label="Layer 1">
    <g
       id="g24"
       transform="translate(-400,-174)">
      <path
         id="path1"
         d="m 0,0 v -29.014 c 0,-0.782 -0.037,-0.668 0.785,-0.668 h 16.238 c 4.52,0 9.211,-0.147 13.37,1.914 5.275,2.617 8.374,9.605 7.817,15.284 -0.564,5.731 -4.503,9.65 -9.728,11.621 C 25.873,0.121 22.225,0 19.445,0 Z M 0.005,15.915 0.002,6.689 21.804,6.688 c 8.49,0 9.866,11.893 8.675,15.34 -1.244,3.6 -4.643,6.033 -8.104,7.132 -2.874,0.653 -22.37,5.293 -22.37,-13.245 M 24.816,35.948 C 30.72,34.283 35.805,29.062 37.473,23.173 39.292,16.758 37.26,10.307 32.941,5.391 c 5.289,-2.916 9.73,-7.316 11.51,-13.207 1.646,-5.45 1.248,-11.742 -1.513,-16.766 -3.015,-5.484 -8.777,-9.844 -14.875,-11.149 -3.349,-0.715 -6.884,-0.47 -10.292,-0.47 H -3.032 c -2.649,0 -4.062,1.886 -4.062,4.31 v 15.597 33.25 c 0,24.757 26.259,20.585 31.91,18.992"
         style="fill:#aa2d2a;fill-opacity:1;fill-rule:nonzero;stroke:none"
         transform="matrix(1.1333333,0,0,-1.1333333,633.10253,477.30675)"
         clip-path="url(#clipPath2)" />
      <path
         id="path3"
         d="m 0,0 v -59.064 h 15.608 c 15.814,0 24.264,14.517 24.264,29.235 C 39.872,-14.717 32.215,0 17.004,0 Z m -7.359,2.486 c 0,3.182 1.889,4.772 5.767,4.772 h 19.688 c 19.589,0 29.632,-18.892 29.632,-37.087 0,-18.595 -12.132,-36.492 -31.621,-36.492 h -19.29 c -3.181,0 -4.176,0.596 -4.176,4.075 z"
         style="fill:#aa2d2a;fill-opacity:1;fill-rule:nonzero;stroke:none"
         transform="matrix(1.1333333,0,0,-1.1333333,754.64528,443.62114)"
         clip-path="url(#clipPath4)" />
      <path
         id="path5"
         d="m 0,0 c -6.402,0 -12.315,-5.236 -12.315,-12.123 0,-6.205 8.337,-9.794 16.583,-14.255 8.725,-4.752 18.035,-9.504 18.035,-19.591 0,-13.868 -10.376,-21.044 -23.759,-21.044 -6.109,0 -11.735,1.649 -16.681,4.849 -1.745,1.166 -2.617,2.62 -2.617,4.267 0,2.232 1.067,3.297 3.295,3.297 1.069,0 2.232,-0.388 3.398,-1.164 3.78,-2.325 8.628,-3.684 12.897,-3.684 8.439,0 15.611,3.684 15.611,12.995 0,5.818 -6.981,9.505 -14.544,13.481 -9.505,4.946 -20.172,10.376 -20.172,20.462 0,12.705 9.697,20.073 21.819,20.073 5.237,0 10.96,-1.453 16.488,-4.458 1.84,-1.068 2.713,-2.813 2.713,-4.463 0,-1.938 -1.358,-3.782 -3.393,-3.782 -1.164,0 -2.327,0.873 -3.684,1.746 C 10.57,-1.454 5.04,0 0,0"
         style="fill:#aa2d2a;fill-opacity:1;fill-rule:nonzero;stroke:none"
         transform="matrix(1.1333333,0,0,-1.1333333,712.50647,443.756)"
         clip-path="url(#clipPath6)" />
      <path
         id="path7"
         d="m 0,0 c -0.09,-1.711 -1.256,-3.258 -3.418,-3.258 -2.161,0 -3.333,1.621 -3.333,3.334 v 32.342 c 0,9.099 6.306,16.305 18.288,16.305 6.216,0 10.991,-1.081 14.955,-2.702 1.53,-0.631 2.523,-2.072 2.523,-3.244 0,-2.072 -1.532,-2.794 -3.063,-2.794 -2.794,0 -6.578,2.164 -12.433,2.164 -8.469,0 -13.515,-4.144 -13.515,-10.36 z"
         style="fill:#aa2d2a;fill-opacity:1;fill-rule:nonzero;stroke:none"
         transform="matrix(1.1333333,0,0,-1.1333333,456.92303,514.85918)"
         clip-path="url(#clipPath8)" />
      <path
         id="path9"
         d="m 0,0 v -33.135 c -0.088,-1.712 -1.213,-3.173 -3.374,-3.173 -2.161,0 -3.334,1.622 -3.334,3.332 V 14.47 15.543 C -6.314,30.9 3.994,38.577 14.842,38.577 h 13.011 c 2.916,0 4.425,-1.207 4.425,-3.519 0,-2.211 -1.509,-3.318 -4.425,-3.318 L 15.114,31.78 C 6.957,31.78 0.106,26.705 0.106,15.467 l -0.057,-4.79 c 0,0 0,1.555 -0.003,-3.905 h 22.373 c 1.862,0 3.371,-1.51 3.371,-3.372 0,-1.861 -1.509,-3.371 -3.371,-3.371 z"
         style="fill:#aa2d2a;fill-opacity:1;fill-rule:nonzero;stroke:none"
         transform="matrix(1.1333333,0,0,-1.1333333,410.86539,477.40093)"
         clip-path="url(#clipPath10)" />
      <path
         id="path11"
         d="m 0,0 h -37.263 l 0.047,0.375 c 0.644,4.943 3.444,9.637 7.68,12.883 3.01,2.302 6.597,3.422 10.973,3.422 4.5,0 8.303,-1.374 11.971,-4.321 C -3.317,9.729 0,4.754 0,0.331 Z m 6.886,1.314 c -0.841,6.495 -4.282,12.525 -9.693,16.977 -4.379,3.601 -9.906,5.504 -15.979,5.504 -12.021,0 -23.333,-9.593 -25.215,-21.386 -1.972,-12.342 5.253,-24.682 16.808,-28.704 5.082,-1.768 10.801,-1.747 17.011,0.067 1.958,0.571 4.149,1.312 5.395,2.888 0.948,1.193 0.947,3.244 -0.005,4.304 -0.674,0.757 -1.8,1.189 -3.082,1.189 -0.429,0 -0.792,-0.186 -1.214,-0.399 -0.141,-0.073 -0.287,-0.146 -0.437,-0.215 -0.921,-0.413 -1.775,-0.758 -2.614,-1.049 -3.456,-1.201 -6.907,-1.456 -10.313,-0.759 -3.71,0.761 -6.787,2.406 -9.402,5.026 -2.196,2.196 -3.834,4.983 -4.743,8.057 l -0.124,0.425 H 3.213 c 1.242,0 2.158,0.354 2.799,1.083 1.377,1.567 1.191,4.561 0.874,6.992"
         style="fill:#aa2d2a;fill-opacity:1;fill-rule:nonzero;stroke:none"
         transform="matrix(1.1333333,0,0,-1.1333333,606.39995,486.61357)"
         clip-path="url(#clipPath12)" />
      <path
         id="path13"
         d="m 0,0 h -37.266 l 0.048,0.375 c 0.644,4.943 3.444,9.637 7.68,12.883 3.01,2.302 6.599,3.422 10.972,3.422 4.501,0 8.306,-1.374 11.974,-4.321 C -3.315,9.729 0,4.754 0,0.331 Z m 6.886,1.314 c -0.839,6.495 -4.282,12.525 -9.693,16.977 -4.377,3.601 -9.905,5.504 -15.981,5.504 -12.022,0 -23.333,-9.593 -25.215,-21.386 -1.973,-12.342 5.253,-24.682 16.806,-28.704 5.083,-1.768 10.804,-1.747 17.016,0.067 1.957,0.571 4.149,1.312 5.394,2.888 0.948,1.193 0.947,3.244 -0.003,4.304 -0.676,0.757 -1.8,1.189 -3.082,1.189 -0.431,0 -0.794,-0.186 -1.216,-0.399 -0.143,-0.073 -0.287,-0.146 -0.437,-0.215 -0.921,-0.413 -1.776,-0.758 -2.615,-1.049 -3.457,-1.201 -6.909,-1.456 -10.314,-0.759 -3.71,0.761 -6.786,2.406 -9.404,5.026 -2.195,2.196 -3.833,4.983 -4.741,8.057 l -0.125,0.425 H 3.213 c 1.243,0 2.159,0.354 2.799,1.083 1.377,1.567 1.191,4.561 0.874,6.992"
         style="fill:#aa2d2a;fill-opacity:1;fill-rule:nonzero;stroke:none"
         transform="matrix(1.1333333,0,0,-1.1333333,540.04397,486.61357)"
         clip-path="url(#clipPath14)" />
      <path
         id="path15"
         d="m 0,0 c 0.133,0 0.261,0.005 0.384,0.015 0.123,0.011 0.229,0.041 0.32,0.09 0.091,0.049 0.165,0.117 0.221,0.205 0.056,0.088 0.084,0.212 0.084,0.373 0,0.133 -0.03,0.239 -0.089,0.316 C 0.86,1.076 0.785,1.136 0.694,1.178 0.603,1.22 0.501,1.246 0.389,1.257 0.277,1.267 0.168,1.272 0.063,1.272 H -0.799 V 0 Z m -0.799,-2.471 h -0.715 v 4.353 h 1.651 c 0.525,0 0.921,-0.098 1.188,-0.294 0.266,-0.196 0.399,-0.516 0.399,-0.957 0,-0.393 -0.108,-0.68 -0.325,-0.863 -0.218,-0.182 -0.488,-0.29 -0.81,-0.325 l 1.22,-1.914 h -0.81 l -1.126,1.861 h -0.672 z m 3.786,2.25 C 2.987,0.256 2.909,0.694 2.755,1.093 2.601,1.493 2.387,1.837 2.114,2.124 1.84,2.412 1.521,2.634 1.157,2.792 0.792,2.95 0.4,3.029 -0.021,3.029 -0.449,3.029 -0.847,2.95 -1.215,2.792 -1.583,2.634 -1.904,2.412 -2.177,2.124 -2.45,1.837 -2.665,1.493 -2.819,1.093 -2.973,0.694 -3.05,0.256 -3.05,-0.221 c 0,-0.449 0.07,-0.87 0.21,-1.262 0.14,-0.393 0.342,-0.736 0.605,-1.031 0.263,-0.294 0.58,-0.527 0.952,-0.699 0.371,-0.172 0.792,-0.258 1.262,-0.258 0.421,0 0.813,0.079 1.178,0.237 0.364,0.158 0.683,0.38 0.957,0.668 0.273,0.287 0.487,0.629 0.641,1.025 0.154,0.396 0.232,0.836 0.232,1.32 m 0.841,0 C 3.828,-0.81 3.724,-1.346 3.518,-1.83 3.311,-2.314 3.03,-2.728 2.676,-3.071 2.323,-3.415 1.912,-3.681 1.446,-3.871 0.979,-4.06 0.491,-4.154 -0.021,-4.154 c -0.568,0 -1.089,0.099 -1.562,0.299 -0.473,0.2 -0.88,0.475 -1.22,0.826 -0.34,0.35 -0.606,0.766 -0.799,1.246 -0.193,0.481 -0.29,1.001 -0.29,1.562 0,0.589 0.104,1.125 0.311,1.609 0.207,0.484 0.487,0.898 0.841,1.241 0.354,0.343 0.766,0.61 1.236,0.799 0.47,0.19 0.964,0.284 1.483,0.284 0.512,0 1,-0.094 1.467,-0.284 C 1.912,3.239 2.323,2.972 2.676,2.629 3.03,2.286 3.311,1.872 3.518,1.388 3.724,0.904 3.828,0.368 3.828,-0.221"
         style="fill:#aa2d2a;fill-opacity:1;fill-rule:nonzero;stroke:none"
         transform="matrix(1.1333333,0,0,-1.1333333,804.24448,439.65764)"
         clip-path="url(#clipPath16)" />
      <path
         id="path17"
         d="m 0,0 c 0.133,0 0.261,0.005 0.384,0.015 0.123,0.011 0.229,0.041 0.32,0.09 0.091,0.049 0.165,0.117 0.221,0.205 0.056,0.088 0.084,0.212 0.084,0.373 0,0.134 -0.03,0.239 -0.089,0.316 C 0.86,1.076 0.785,1.136 0.694,1.178 0.603,1.22 0.501,1.246 0.389,1.257 0.277,1.267 0.168,1.272 0.063,1.272 H -0.799 V 0 Z m -0.799,-2.471 h -0.715 v 4.353 h 1.651 c 0.525,0 0.921,-0.098 1.188,-0.294 0.266,-0.196 0.399,-0.516 0.399,-0.957 0,-0.393 -0.108,-0.68 -0.325,-0.863 -0.218,-0.182 -0.488,-0.29 -0.81,-0.325 l 1.22,-1.914 h -0.81 l -1.126,1.861 h -0.672 z m 3.786,2.25 C 2.987,0.256 2.909,0.694 2.755,1.093 2.601,1.493 2.387,1.837 2.114,2.124 1.84,2.412 1.521,2.634 1.157,2.792 0.792,2.95 0.4,3.029 -0.021,3.029 -0.449,3.029 -0.847,2.95 -1.215,2.792 -1.583,2.634 -1.904,2.412 -2.177,2.124 -2.45,1.837 -2.665,1.493 -2.819,1.093 -2.973,0.694 -3.05,0.256 -3.05,-0.221 c 0,-0.449 0.07,-0.87 0.21,-1.262 0.14,-0.393 0.342,-0.736 0.605,-1.031 0.263,-0.294 0.58,-0.527 0.952,-0.699 0.371,-0.172 0.792,-0.258 1.262,-0.258 0.421,0 0.813,0.079 1.178,0.237 0.364,0.158 0.683,0.38 0.957,0.668 0.273,0.287 0.487,0.629 0.641,1.025 0.154,0.396 0.232,0.836 0.232,1.32 m 0.841,0 C 3.828,-0.81 3.724,-1.346 3.518,-1.83 3.311,-2.314 3.03,-2.728 2.676,-3.071 2.323,-3.415 1.912,-3.681 1.446,-3.871 0.979,-4.06 0.491,-4.154 -0.021,-4.154 c -0.568,0 -1.089,0.1 -1.562,0.299 -0.473,0.2 -0.88,0.475 -1.22,0.826 -0.34,0.35 -0.606,0.766 -0.799,1.246 -0.193,0.481 -0.29,1.001 -0.29,1.562 0,0.589 0.104,1.125 0.311,1.609 0.207,0.484 0.487,0.898 0.841,1.241 0.354,0.343 0.766,0.61 1.236,0.799 0.47,0.19 0.964,0.284 1.483,0.284 0.512,0 1,-0.094 1.467,-0.284 C 1.912,3.239 2.323,2.972 2.676,2.629 3.03,2.286 3.311,1.872 3.518,1.388 3.724,0.904 3.828,0.368 3.828,-0.221"
         style="fill:#aa2d2a;fill-opacity:1;fill-rule:nonzero;stroke:none"
         transform="matrix(1.3333333,0,0,-1.3333333,736.72253,199.33613)"
         clip-path="url(#clipPath18)" />
      <path
         id="path19"
         d="m 0,0 c 9.895,-9.89 -17.535,-53.361 -22.171,-58 -4.637,-4.63 -16.413,-0.371 -26.305,9.522 -9.894,9.89 -14.156,21.67 -9.519,26.307 C -53.359,-17.533 -9.89,9.893 0,0"
         style="fill:#aa2d2a;fill-opacity:1;fill-rule:nonzero;stroke:none"
         transform="matrix(1.3333333,0,0,-1.3333333,723.048,184.80573)"
         clip-path="url(#clipPath20)" />
      <path
         id="path21"
         d="M 0,0 C -15.106,8.571 -36.597,18.104 -43.435,11.267 -50.364,4.341 -40.48,-17.636 -31.82,-32.769 -24.114,-19.37 -13.149,-8.09 0,0"
         style="fill:#aa2d2a;fill-opacity:1;fill-rule:nonzero;stroke:none"
         transform="matrix(1.3333333,0,0,-1.3333333,538.05613,198.7584)"
         clip-path="url(#clipPath22)" />
      <path
         id="path23"
         d="m 0,0 c 1.39,-4.718 1.139,-8.616 -1.115,-10.867 -5.271,-5.271 -19.503,0.339 -32.332,12.55 -0.897,0.803 -1.784,1.636 -2.658,2.511 -4.637,4.641 -8.248,9.583 -10.557,14.132 -4.494,8.06 -5.618,15.18 -2.221,18.576 1.851,1.851 4.812,2.355 8.424,1.704 2.357,1.489 5.136,3.15 8.186,4.849 -12.4,6.467 -26.497,10.121 -41.453,10.121 -49.601,0 -89.814,-40.206 -89.814,-89.812 0,-49.599 40.213,-89.809 89.814,-89.809 49.602,0 89.815,40.21 89.815,89.809 0,16.019 -4.204,31.041 -11.551,44.063 C 2.952,4.931 1.408,2.275 0,0"
         style="fill:#aa2d2a;fill-opacity:1;fill-rule:nonzero;stroke:none"
         transform="matrix(1.3333333,0,0,-1.3333333,702.9312,257.59027)"
         clip-path="url(#clipPath24)" />
    </g>
  </g>
</svg>
